<svg width="18" height="15" viewBox="0 0 18 15" fill="none" xmlns="http://www.w3.org/2000/svg">
<path d="M9.00377 2.62986C9.50361 2.62986 10.0109 2.69704 10.4958 2.82395C11.8238 1.33097 14.2484 0.70392 15.2854 1.13688C16.3298 1.56985 14.972 6.3623 14.972 6.3623C15.3973 7.16104 15.7181 8.03444 15.7181 8.93022C15.7181 12.2596 12.7116 14.5737 9.00377 14.5737C5.29597 14.5737 2.28945 12.3342 2.28945 8.93022C2.28945 7.99711 2.66246 7.13865 3.03548 6.3623C3.03548 6.3623 1.62548 1.56985 2.66246 1.13688C3.69945 0.70392 6.18375 1.30858 7.51169 2.80155C8.00111 2.68891 8.50157 2.63133 9.00377 2.62986Z" fill="black" stroke="black" stroke-width="0.4" stroke-linecap="round" stroke-linejoin="round"/>
<path d="M17.0002 9.97284C16.6339 9.73733 15.0469 9.1488 14.4365 9.1488Z" fill="black"/>
<path d="M17.0002 9.97284C16.6339 9.73733 15.0469 9.1488 14.4365 9.1488" stroke="black" stroke-width="0.5" stroke-linecap="round"/>
<path d="M1 9.97284C1.36624 9.73733 2.95327 9.1488 3.56366 9.1488Z" fill="black"/>
<path d="M1 9.97284C1.36624 9.73733 2.95327 9.1488 3.56366 9.1488" stroke="black" stroke-width="0.5" stroke-linecap="round"/>
<path d="M1.73242 11.0944C2.09867 10.8589 2.95322 10.2704 3.56361 10.2704" stroke="black" stroke-width="0.5" stroke-linecap="round"/>
<path d="M16.2677 11.0944C15.9015 10.8589 15.0469 10.2704 14.4365 10.2704" stroke="black" stroke-width="0.5" stroke-linecap="round"/>
</svg>
