<svg version="1.1" id="Layer_1" xmlns="http://www.w3.org/2000/svg" xmlns:xlink="http://www.w3.org/1999/xlink" x="0px" y="0px"
	 width="100%" viewBox="0 0 1133 944" enable-background="new 0 0 1133 944" xml:space="preserve">
<path fill="#FFFFFF" opacity="1.000000" stroke="none" 
	d="
M668.000000,945.000000 
	C445.360016,945.000000 223.220062,945.000000 1.040044,945.000000 
	C1.040044,630.397827 1.040044,315.795685 1.040044,1.096761 
	C378.556732,1.096761 756.113525,1.096761 1133.835205,1.096761 
	C1133.835205,315.666595 1133.835205,630.333313 1133.835205,945.000000 
	C978.795410,945.000000 823.647705,945.000000 668.000000,945.000000 
M699.682434,234.179352 
	C691.256531,245.756454 682.774109,257.293030 674.432251,268.930328 
	C671.037415,273.666290 666.684570,276.238281 660.894287,277.313843 
	C648.878113,279.545746 637.346008,277.101746 625.812622,274.485443 
	C598.806885,268.359375 571.548279,265.383057 543.982788,269.153229 
	C528.009155,271.337952 512.255493,275.095978 496.304565,277.491577 
	C481.175964,279.763672 468.869781,276.853424 458.694275,262.717560 
	C435.067535,229.895172 410.203918,197.913330 384.755157,166.470154 
	C368.331268,146.177643 350.659332,126.774506 332.305389,108.199333 
	C314.574310,90.254555 294.489319,74.986565 270.183716,66.500740 
	C257.160004,61.953770 243.796021,58.824455 230.026993,62.399704 
	C213.239838,66.758636 202.369843,78.374107 194.538849,93.198143 
	C181.207443,118.434357 176.303040,145.854446 174.053909,173.903595 
	C170.445969,218.898315 176.999268,262.595093 191.532471,305.156586 
	C200.209702,330.568451 207.885391,355.891144 207.526871,383.376770 
	C207.267303,403.276093 214.727524,421.724182 224.926254,438.936249 
	C236.459091,458.399780 250.338516,476.095367 265.936005,492.302643 
	C284.485779,511.577759 289.091400,533.492126 281.364288,558.564148 
	C276.419006,574.610046 270.949799,590.510620 266.533691,606.699585 
	C259.481995,632.550232 256.712036,658.734863 263.671509,685.147766 
	C270.792389,712.173218 285.677399,734.781250 305.647888,753.684387 
	C322.183868,769.336487 339.920776,783.787476 357.736145,798.005554 
	C389.159454,823.083984 423.644836,842.839478 461.712738,856.280701 
	C470.073608,859.232849 478.423309,863.332214 485.491364,868.622559 
	C507.155609,884.837891 531.249207,893.232117 558.141418,894.551331 
	C591.645020,896.194885 623.062073,890.858704 650.678955,869.977600 
	C657.744507,864.635376 666.148315,860.939941 674.229248,857.102783 
	C680.665100,854.046997 687.621155,852.109131 694.216431,849.363159 
	C747.018860,827.378235 791.216309,792.836853 832.356812,754.001221 
	C847.493652,739.712402 859.531921,722.927368 868.071472,703.835144 
	C881.182068,674.523376 881.003662,644.231323 873.306885,613.830261 
	C868.497742,594.834900 862.046997,576.259583 856.542908,557.434448 
	C849.681519,533.966553 853.084229,512.837585 870.391235,494.434753 
	C879.735718,484.498505 888.348267,473.839386 896.866821,463.167694 
	C918.788208,435.705078 932.035522,405.101624 931.852112,369.169525 
	C931.796997,358.358063 934.028992,347.327972 936.672913,336.763336 
	C939.813110,324.215942 944.598511,312.085144 948.548340,299.734619 
	C966.095703,244.866608 970.605408,189.204910 957.870911,132.699570 
	C953.535217,113.461746 947.236328,94.803688 934.279724,79.320114 
	C922.225220,64.914589 906.772522,58.951019 888.039734,61.618607 
	C870.391235,64.131775 854.547791,71.062317 839.745667,80.747597 
	C819.226135,94.173897 801.014587,110.410667 785.344604,129.053497 
	C756.415771,163.470764 728.456787,198.703247 699.682434,234.179352 
z"/>
<path fill="#010101" opacity="1.000000" stroke="none" 
	d="
M699.888062,233.887726 
	C728.456787,198.703247 756.415771,163.470764 785.344604,129.053497 
	C801.014587,110.410667 819.226135,94.173897 839.745667,80.747597 
	C854.547791,71.062317 870.391235,64.131775 888.039734,61.618607 
	C906.772522,58.951019 922.225220,64.914589 934.279724,79.320114 
	C947.236328,94.803688 953.535217,113.461746 957.870911,132.699570 
	C970.605408,189.204910 966.095703,244.866608 948.548340,299.734619 
	C944.598511,312.085144 939.813110,324.215942 936.672913,336.763336 
	C934.028992,347.327972 931.796997,358.358063 931.852112,369.169525 
	C932.035522,405.101624 918.788208,435.705078 896.866821,463.167694 
	C888.348267,473.839386 879.735718,484.498505 870.391235,494.434753 
	C853.084229,512.837585 849.681519,533.966553 856.542908,557.434448 
	C862.046997,576.259583 868.497742,594.834900 873.306885,613.830261 
	C881.003662,644.231323 881.182068,674.523376 868.071472,703.835144 
	C859.531921,722.927368 847.493652,739.712402 832.356812,754.001221 
	C791.216309,792.836853 747.018860,827.378235 694.216431,849.363159 
	C687.621155,852.109131 680.665100,854.046997 674.229248,857.102783 
	C666.148315,860.939941 657.744507,864.635376 650.678955,869.977600 
	C623.062073,890.858704 591.645020,896.194885 558.141418,894.551331 
	C531.249207,893.232117 507.155609,884.837891 485.491364,868.622559 
	C478.423309,863.332214 470.073608,859.232849 461.712738,856.280701 
	C423.644836,842.839478 389.159454,823.083984 357.736145,798.005554 
	C339.920776,783.787476 322.183868,769.336487 305.647888,753.684387 
	C285.677399,734.781250 270.792389,712.173218 263.671509,685.147766 
	C256.712036,658.734863 259.481995,632.550232 266.533691,606.699585 
	C270.949799,590.510620 276.419006,574.610046 281.364288,558.564148 
	C289.091400,533.492126 284.485779,511.577759 265.936005,492.302643 
	C250.338516,476.095367 236.459091,458.399780 224.926254,438.936249 
	C214.727524,421.724182 207.267303,403.276093 207.526871,383.376770 
	C207.885391,355.891144 200.209702,330.568451 191.532471,305.156586 
	C176.999268,262.595093 170.445969,218.898315 174.053909,173.903595 
	C176.303040,145.854446 181.207443,118.434357 194.538849,93.198143 
	C202.369843,78.374107 213.239838,66.758636 230.026993,62.399704 
	C243.796021,58.824455 257.160004,61.953770 270.183716,66.500740 
	C294.489319,74.986565 314.574310,90.254555 332.305389,108.199333 
	C350.659332,126.774506 368.331268,146.177643 384.755157,166.470154 
	C410.203918,197.913330 435.067535,229.895172 458.694275,262.717560 
	C468.869781,276.853424 481.175964,279.763672 496.304565,277.491577 
	C512.255493,275.095978 528.009155,271.337952 543.982788,269.153229 
	C571.548279,265.383057 598.806885,268.359375 625.812622,274.485443 
	C637.346008,277.101746 648.878113,279.545746 660.894287,277.313843 
	C666.684570,276.238281 671.037415,273.666290 674.432251,268.930328 
	C682.774109,257.293030 691.256531,245.756454 699.888062,233.887726 
z"/>
</svg>